{
  "scene": 0,
  "scenes": [
    {
      "nodes": [
        0
      ]
    }
  ],
  "asset": {
    "version": "2.0",
    "generator": "https://github.com/mikedh/trimesh"
  },
  "accessors": [
    {
      "componentType": 5125,
      "type": "SCALAR",
      "bufferView": 0,
      "count": 960,
      "max": [
        161
      ],
      "min": [
        0
      ]
    },
    {
      "componentType": 5126,
      "type": "VEC3",
      "byteOffset": 0,
      "bufferView": 1,
      "count": 162,
      "max": [
        1.0,
        1.0,
        1.0
      ],
      "min": [
        -1.0,
        -1.0,
        -1.0
      ]
    },
    {
      "componentType": 5121,
      "normalized": true,
      "type": "VEC4",
      "byteOffset": 0,
      "bufferView": 2,
      "count": 162,
      "max": [
        173,
        216,
        230,
        255
      ],
      "min": [
        173,
        216,
        230,
        255
      ]
    },
    {
      "componentType": 5126,
      "type": "VEC3",
      "byteOffset": 0,
      "bufferView": 3,
      "count": 200,
      "max": [
        1.917507290840149,
        1.882886290550232,
        0.05315626785159111
      ],
      "min": [
        -1.9478890895843506,
        -1.9896823167800903,
        -0.07778853178024292
      ]
    },
    {
      "componentType": 5121,
      "count": 200,
      "normalized": true,
      "type": "VEC4",
      "byteOffset": 0,
      "bufferView": 4,
      "max": [
        245,
        245,
        245,
        255
      ],
      "min": [
        245,
        245,
        245,
        255
      ]
    },
    {
      "bufferView": 5,
      "componentType": 5126,
      "count": 162,
      "type": "VEC2",
      "min": [
        0.026926996186375618,
        0.0
      ],
      "max": [
        1.0,
        1.0
      ]
    }
  ],
  "meshes": [
    {
      "name": "geometry_0",
      "extras": {
        "shape": "sphere",
        "radius": 1.0
      },
      "primitives": [
        {
          "attributes": {
            "POSITION": 1,
            "TEXCOORD_0": 5
          },
          "indices": 0,
          "mode": 4
        }
      ]
    },
    {
      "name": "geometry_1",
      "primitives": [
        {
          "attributes": {
            "POSITION": 3,
            "COLOR_0": 4
          },
          "mode": 0,
          "material": 0
        }
      ]
    }
  ],
  "materials": [
    {
      "pbrMetallicRoughness": {
        "baseColorFactor": [
          1,
          1,
          1,
          1
        ],
        "metallicFactor": 0,
        "roughnessFactor": 1,
        "baseColorTexture": {
          "index": 0
        }
      }
    }
  ],
  "nodes": [
    {
      "name": "world",
      "children": [
        1,
        2
      ]
    },
    {
      "name": "Uranus",
      "mesh": 0
    },
    {
      "name": "RingParticles",
      "mesh": 1
    }
  ],
  "buffers": [
    {
      "uri": "data:application/octet-stream;base64,",
      "byteLength": 3840
    },
    {
      "uri": "data:application/octet-stream;base64,",
      "byteLength": 1944
    },
    {
      "uri": "data:application/octet-stream;base64,",
      "byteLength": 648
    },
    {
      "uri": "data:application/octet-stream;base64,",
      "byteLength": 2400
    },
    {
      "uri": "data:application/octet-stream;base64,",
      "byteLength": 800
    },
    {
      "uri": "data:application/octet-stream;base64,",
      "byteLength": 1296
    }
  ],
  "bufferViews": [
    {
      "buffer": 0,
      "byteOffset": 0,
      "byteLength": 3840
    },
    {
      "buffer": 1,
      "byteOffset": 0,
      "byteLength": 1944
    },
    {
      "buffer": 2,
      "byteOffset": 0,
      "byteLength": 648
    },
    {
      "buffer": 3,
      "byteOffset": 0,
      "byteLength": 2400
    },
    {
      "buffer": 4,
      "byteOffset": 0,
      "byteLength": 800
    },
    {
      "buffer": 5,
      "byteOffset": 0,
      "byteLength": 1296
    }
  ],
  "images": [
    {
      "uri": "data:image/jpeg;base64,"
    }
  ],
  "textures": [
    {
      "source": 0
    }
  ]
}