{
  "scene": 0,
  "scenes": [
    {
      "nodes": [
        0
      ]
    }
  ],
  "asset": {
    "version": "2.0",
    "generator": "https://github.com/mikedh/trimesh"
  },
  "accessors": [
    {
      "componentType": 5125,
      "type": "SCALAR",
      "bufferView": 0,
      "count": 61440,
      "max": [
        10241
      ],
      "min": [
        0
      ]
    },
    {
      "componentType": 5126,
      "type": "VEC3",
      "byteOffset": 0,
      "bufferView": 1,
      "count": 10242,
      "max": [
        1.0,
        1.0,
        1.0
      ],
      "min": [
        -1.0,
        -1.0,
        -1.0
      ]
    },
    {
      "componentType": 5121,
      "normalized": true,
      "type": "VEC4",
      "byteOffset": 0,
      "bufferView": 2,
      "count": 10242,
      "max": [
        90,
        200,
        240,
        255
      ],
      "min": [
        90,
        200,
        240,
        255
      ]
    },
    {
      "componentType": 5125,
      "type": "SCALAR",
      "bufferView": 3,
      "count": 3072,
      "max": [
        511
      ],
      "min": [
        0
      ]
    },
    {
      "componentType": 5126,
      "type": "VEC3",
      "byteOffset": 0,
      "bufferView": 4,
      "count": 512,
      "max": [
        1.600000023841858,
        0.009999999776482582,
        1.600000023841858
      ],
      "min": [
        -1.600000023841858,
        -0.009999999776482582,
        -1.600000023841858
      ]
    },
    {
      "componentType": 5121,
      "normalized": true,
      "type": "VEC4",
      "byteOffset": 0,
      "bufferView": 5,
      "count": 512,
      "max": [
        200,
        200,
        200,
        255
      ],
      "min": [
        200,
        200,
        200,
        255
      ]
    }
  ],
  "meshes": [
    {
      "name": "geometry_0",
      "extras": {
        "shape": "sphere",
        "radius": 1.0
      },
      "primitives": [
        {
          "attributes": {
            "POSITION": 1,
            "COLOR_0": 2
          },
          "indices": 0,
          "mode": 4
        }
      ]
    },
    {
      "name": "geometry_1",
      "extras": {
        "shape": "annulus",
        "r_min": 1.4,
        "r_max": 1.6,
        "height": 0.02,
        "processed": true
      },
      "primitives": [
        {
          "attributes": {
            "POSITION": 4,
            "COLOR_0": 5
          },
          "indices": 3,
          "mode": 4
        }
      ]
    }
  ],
  "nodes": [
    {
      "name": "world",
      "children": [
        1,
        2
      ]
    },
    {
      "name": "geometry_0",
      "mesh": 0
    },
    {
      "name": "geometry_1",
      "mesh": 1
    }
  ],
  "buffers": [
    {
      "uri": "data:application/octet-stream;base64,",
      "byteLength": 245760
    },
    {
      "uri": "data:application/octet-stream;base64,",
      "byteLength": 122904
    },
    {
      "uri": "data:application/octet-stream;base64,",
      "byteLength": 40968
    },
    {
      "uri": "data:application/octet-stream;base64,",
      "byteLength": 12288
    },
    {
      "uri": "data:application/octet-stream;base64,",
      "byteLength": 6144
    },
    {
      "uri": "data:application/octet-stream;base64,",
      "byteLength": 2048
    }
  ],
  "bufferViews": [
    {
      "buffer": 0,
      "byteOffset": 0,
      "byteLength": 245760
    },
    {
      "buffer": 1,
      "byteOffset": 0,
      "byteLength": 122904
    },
    {
      "buffer": 2,
      "byteOffset": 0,
      "byteLength": 40968
    },
    {
      "buffer": 3,
      "byteOffset": 0,
      "byteLength": 12288
    },
    {
      "buffer": 4,
      "byteOffset": 0,
      "byteLength": 6144
    },
    {
      "buffer": 5,
      "byteOffset": 0,
      "byteLength": 2048
    }
  ]
}
