{
  "scene": 0,
  "scenes": [
    {
      "nodes": [
        0
      ]
    }
  ],
  "asset": {
    "version": "2.0",
    "generator": "https://github.com/mikedh/trimesh"
  },
  "accessors": [
    {
      "componentType": 5125,
      "type": "SCALAR",
      "bufferView": 0,
      "count": 23040,
      "max": [
        3841
      ],
      "min": [
        0
      ]
    },
    {
      "componentType": 5126,
      "type": "VEC3",
      "byteOffset": 0,
      "bufferView": 1,
      "count": 3842,
      "max": [
        0.9987165331840515,
        0.9987165331840515,
        1.0
      ],
      "min": [
        -0.9987165331840515,
        -0.9987165331840515,
        -1.0
      ]
    },
    {
      "componentType": 5121,
      "normalized": true,
      "type": "VEC4",
      "byteOffset": 0,
      "bufferView": 2,
      "count": 3842,
      "max": [
        210,
        180,
        140,
        255
      ],
      "min": [
        210,
        180,
        140,
        255
      ]
    },
    {
      "componentType": 5126,
      "count": 3842,
      "type": "VEC3",
      "byteOffset": 0,
      "bufferView": 3,
      "max": [
        0.9987185597419739,
        0.9987185597419739,
        1.0
      ],
      "min": [
        -0.9987185597419739,
        -0.9987185597419739,
        -1.0
      ]
    },
    {
      "componentType": 5125,
      "type": "SCALAR",
      "bufferView": 4,
      "count": 1536,
      "max": [
        255
      ],
      "min": [
        0
      ]
    },
    {
      "componentType": 5126,
      "type": "VEC3",
      "byteOffset": 0,
      "bufferView": 5,
      "count": 256,
      "max": [
        1.5,
        1.5,
        -0.0
      ],
      "min": [
        -1.5,
        -1.5,
        -0.0
      ]
    },
    {
      "componentType": 5121,
      "normalized": true,
      "type": "VEC4",
      "byteOffset": 0,
      "bufferView": 6,
      "count": 256,
      "max": [
        206,
        199,
        185,
        255
      ],
      "min": [
        206,
        199,
        185,
        255
      ]
    },
    {
      "componentType": 5126,
      "count": 256,
      "type": "VEC3",
      "byteOffset": 0,
      "bufferView": 7,
      "max": [
        0.0,
        0.0,
        -0.0
      ],
      "min": [
        0.0,
        0.0,
        -0.0
      ]
    },
    {
      "componentType": 5126,
      "type": "VEC3",
      "byteOffset": 0,
      "bufferView": 8,
      "count": 256,
      "max": [
        1.7999999523162842,
        1.7999999523162842,
        -0.0
      ],
      "min": [
        -1.7999999523162842,
        -1.7999999523162842,
        -0.0
      ]
    },
    {
      "componentType": 5121,
      "normalized": true,
      "type": "VEC4",
      "byteOffset": 0,
      "bufferView": 9,
      "count": 256,
      "max": [
        240,
        240,
        220,
        255
      ],
      "min": [
        240,
        240,
        220,
        255
      ]
    },
    {
      "componentType": 5126,
      "count": 256,
      "type": "VEC3",
      "byteOffset": 0,
      "bufferView": 10,
      "max": [
        0.0,
        0.0,
        -0.0
      ],
      "min": [
        0.0,
        0.0,
        -0.0
      ]
    },
    {
      "componentType": 5126,
      "type": "VEC3",
      "byteOffset": 0,
      "bufferView": 11,
      "count": 256,
      "max": [
        2.25,
        2.25,
        -0.0
      ],
      "min": [
        -2.25,
        -2.25,
        -0.0
      ]
    },
    {
      "componentType": 5121,
      "normalized": true,
      "type": "VEC4",
      "byteOffset": 0,
      "bufferView": 12,
      "count": 256,
      "max": [
        210,
        210,
        190,
        255
      ],
      "min": [
        210,
        210,
        190,
        255
      ]
    },
    {
      "componentType": 5126,
      "count": 256,
      "type": "VEC3",
      "byteOffset": 0,
      "bufferView": 13,
      "max": [
        0.0,
        0.0,
        0.0
      ],
      "min": [
        0.0,
        0.0,
        0.0
      ]
    }
  ],
  "meshes": [
    {
      "name": "geometry_0",
      "extras": {
        "shape": "sphere",
        "radius": 1.0,
        "processed": true
      },
      "primitives": [
        {
          "attributes": {
            "POSITION": 1,
            "COLOR_0": 2,
            "NORMAL": 3
          },
          "indices": 0,
          "mode": 4
        }
      ]
    },
    {
      "name": "geometry_1",
      "extras": {
        "shape": "annulus",
        "r_min": 1.3,
        "r_max": 1.5,
        "height": 0.0,
        "processed": true
      },
      "primitives": [
        {
          "attributes": {
            "POSITION": 5,
            "COLOR_0": 6,
            "NORMAL": 7
          },
          "indices": 4,
          "mode": 4
        }
      ]
    },
    {
      "name": "geometry_2",
      "extras": {
        "shape": "annulus",
        "r_min": 1.55,
        "r_max": 1.8,
        "height": 0.0,
        "processed": true
      },
      "primitives": [
        {
          "attributes": {
            "POSITION": 8,
            "COLOR_0": 9,
            "NORMAL": 10
          },
          "indices": 4,
          "mode": 4
        }
      ]
    },
    {
      "name": "geometry_3",
      "extras": {
        "shape": "annulus",
        "r_min": 1.9,
        "r_max": 2.25,
        "height": 0.0,
        "processed": true
      },
      "primitives": [
        {
          "attributes": {
            "POSITION": 11,
            "COLOR_0": 12,
            "NORMAL": 13
          },
          "indices": 4,
          "mode": 4
        }
      ]
    }
  ],
  "nodes": [
    {
      "name": "world",
      "children": [
        1,
        2,
        3,
        4
      ]
    },
    {
      "name": "Saturn",
      "mesh": 0
    },
    {
      "name": "RingC",
      "mesh": 1
    },
    {
      "name": "RingB",
      "mesh": 2
    },
    {
      "name": "RingA",
      "mesh": 3
    }
  ],
  "buffers": [
    {
      "uri": "data:application/octet-stream;base64,",
      "byteLength": 92160
    },
    {
      "uri": "data:application/octet-stream;base64,",
      "byteLength": 46104
    },
    {
      "uri": "data:application/octet-stream;base64,",
      "byteLength": 15368
    },
    {
      "uri": "data:application/octet-stream;base64,",
      "byteLength": 46104
    },
    {
      "uri": "data:application/octet-stream;base64,",
      "byteLength": 6144
    },
    {
      "uri": "data:application/octet-stream;base64,",
      "byteLength": 3072
    },
    {
      "uri": "data:application/octet-stream;base64,",
      "byteLength": 1024
    },
    {
      "uri": "data:application/octet-stream;base64,",
      "byteLength": 3072
    },
    {
      "uri": "data:application/octet-stream;base64,",
      "byteLength": 3072
    },
    {
      "uri": "data:application/octet-stream;base64,",
      "byteLength": 1024
    },
    {
      "uri": "data:application/octet-stream;base64,",
      "byteLength": 3072
    },
    {
      "uri": "data:application/octet-stream;base64,",
      "byteLength": 3072
    },
    {
      "uri": "data:application/octet-stream;base64,",
      "byteLength": 1024
    },
    {
      "uri": "data:application/octet-stream;base64,",
      "byteLength": 3072
    }
  ],
  "bufferViews": [
    {
      "buffer": 0,
      "byteOffset": 0,
      "byteLength": 92160
    },
    {
      "buffer": 1,
      "byteOffset": 0,
      "byteLength": 46104
    },
    {
      "buffer": 2,
      "byteOffset": 0,
      "byteLength": 15368
    },
    {
      "buffer": 3,
      "byteOffset": 0,
      "byteLength": 46104
    },
    {
      "buffer": 4,
      "byteOffset": 0,
      "byteLength": 6144
    },
    {
      "buffer": 5,
      "byteOffset": 0,
      "byteLength": 3072
    },
    {
      "buffer": 6,
      "byteOffset": 0,
      "byteLength": 1024
    },
    {
      "buffer": 7,
      "byteOffset": 0,
      "byteLength": 3072
    },
    {
      "buffer": 8,
      "byteOffset": 0,
      "byteLength": 3072
    },
    {
      "buffer": 9,
      "byteOffset": 0,
      "byteLength": 1024
    },
    {
      "buffer": 10,
      "byteOffset": 0,
      "byteLength": 3072
    },
    {
      "buffer": 11,
      "byteOffset": 0,
      "byteLength": 3072
    },
    {
      "buffer": 12,
      "byteOffset": 0,
      "byteLength": 1024
    },
    {
      "buffer": 13,
      "byteOffset": 0,
      "byteLength": 3072
    }
  ]
}