{
  "scene": 0,
  "scenes": [
    {
      "nodes": [
        0
      ]
    }
  ],
  "asset": {
    "version": "2.0",
    "generator": "https://github.com/mikedh/trimesh"
  },
  "accessors": [
    {
      "componentType": 5125,
      "type": "SCALAR",
      "bufferView": 0,
      "count": 47616,
      "max": [
        7937
      ],
      "min": [
        0
      ],
      "byteOffset": 0
    },
    {
      "componentType": 5126,
      "type": "VEC3",
      "byteOffset": 0,
      "bufferView": 1,
      "count": 7938,
      "max": [
        0.9996891617774963,
        0.9996891617774963,
        1
      ],
      "min": [
        -0.9996891617774963,
        -0.9996891617774963,
        -1
      ]
    },
    {
      "componentType": 5126,
      "type": "VEC2",
      "byteOffset": 0,
      "bufferView": 2,
      "count": 7938,
      "max": [
        0.9960317611694336,
        0.9920634627342224
      ],
      "min": [
        0.003968254197388887,
        0.007936508394777775
      ]
    }
  ],
  "meshes": [
    {
      "name": "geometry_0",
      "extras": {
        "shape": "sphere",
        "radius": 1,
        "processed": true
      },
      "primitives": [
        {
          "attributes": {
            "POSITION": 1,
            "TEXCOORD_0": 2
          },
          "indices": 0,
          "mode": 4,
          "material": 0
        }
      ]
    }
  ],
  "images": [
    {
      "bufferView": 3,
      "mimeType": "image/jpeg"
    }
  ],
  "textures": [
    {
      "source": 0
    }
  ],
  "materials": [
    {
      "pbrMetallicRoughness": {
        "baseColorTexture": {
          "index": 0,
          "texCoord": 0
        },
        "baseColorFactor": [
          0.4,
          0.4,
          0.4,
          1
        ],
        "roughnessFactor": 0.9036020036098448,
        "metallicFactor": 1
      },
      "doubleSided": false,
      "emissiveFactor": [
        0,
        0,
        0
      ],
      "alphaMode": "OPAQUE"
    }
  ],
  "nodes": [
    {
      "name": "world",
      "children": [
        1
      ]
    },
    {
      "name": "geometry_0",
      "mesh": 0
    }
  ],
  "buffers": [
    {
      "name": "venus",
      "byteLength": 661200,
      "uri": "data:application/octet-stream;base64,"
    }
  ],
  "bufferViews": [
    {
      "buffer": 0,
      "byteOffset": 0,
      "byteLength": 190464,
      "target": 34963
    },
    {
      "buffer": 0,
      "byteOffset": 190464,
      "byteLength": 95256,
      "byteStride": 12,
      "target": 34962
    },
    {
      "buffer": 0,
      "byteOffset": 285720,
      "byteLength": 63504,
      "byteStride": 8,
      "target": 34962
    },
    {
      "buffer": 0,
      "byteOffset": 349224,
      "byteLength": 311976
    }
  ]
}
